<mxfile host="app.diagrams.net" modified="2024-05-04T16:52:15.107Z" agent="Mozilla/5.0 (Windows NT 10.0; Win64; x64) AppleWebKit/537.36 (KHTML, like Gecko) Chrome/124.0.0.0 Safari/537.36" version="24.3.1" etag="yLJucDpgtDFS9SqR8nQD" type="github">
  <diagram name="Page-1" id="d6BgBmVTwf3PYVH4BFgo">
    <mxGraphModel>
      <root>
        <mxCell id="0" />
        <mxCell id="1" parent="0" />
      </root>
    </mxGraphModel>
  </diagram>
</mxfile>
